<mxfile host="app.diagrams.net" agent="Mozilla/5.0 (Windows NT 10.0; Win64; x64) AppleWebKit/537.36 (KHTML, like Gecko) Chrome/131.0.0.0 Safari/537.36" version="24.9.1">
  <diagram name="Page-1" id="bDoiheOzIH_Bc7Evn8Mb">
    <mxGraphModel dx="1050" dy="522" grid="1" gridSize="10" guides="1" tooltips="1" connect="1" arrows="1" fold="1" page="1" pageScale="1" pageWidth="850" pageHeight="1100" math="0" shadow="0">
      <root>
        <mxCell id="0" />
        <mxCell id="1" parent="0" />
        <mxCell id="12ZrEhQPK1PJFxmt8RGr-1" value="" style="shape=table;startSize=0;container=1;collapsible=0;childLayout=tableLayout;fontSize=16;" vertex="1" parent="1">
          <mxGeometry x="70" y="110" width="100" height="100" as="geometry" />
        </mxCell>
        <mxCell id="12ZrEhQPK1PJFxmt8RGr-2" value="" style="shape=tableRow;horizontal=0;startSize=0;swimlaneHead=0;swimlaneBody=0;strokeColor=inherit;top=0;left=0;bottom=0;right=0;collapsible=0;dropTarget=0;fillColor=none;points=[[0,0.5],[1,0.5]];portConstraint=eastwest;fontSize=16;" vertex="1" parent="12ZrEhQPK1PJFxmt8RGr-1">
          <mxGeometry width="100" height="34" as="geometry" />
        </mxCell>
        <mxCell id="12ZrEhQPK1PJFxmt8RGr-3" value="0" style="shape=partialRectangle;html=1;whiteSpace=wrap;connectable=0;strokeColor=inherit;overflow=hidden;fillColor=none;top=0;left=0;bottom=0;right=0;pointerEvents=1;fontSize=16;" vertex="1" parent="12ZrEhQPK1PJFxmt8RGr-2">
          <mxGeometry width="34" height="34" as="geometry">
            <mxRectangle width="34" height="34" as="alternateBounds" />
          </mxGeometry>
        </mxCell>
        <mxCell id="12ZrEhQPK1PJFxmt8RGr-4" value="1" style="shape=partialRectangle;html=1;whiteSpace=wrap;connectable=0;strokeColor=inherit;overflow=hidden;fillColor=none;top=0;left=0;bottom=0;right=0;pointerEvents=1;fontSize=16;" vertex="1" parent="12ZrEhQPK1PJFxmt8RGr-2">
          <mxGeometry x="34" width="32" height="34" as="geometry">
            <mxRectangle width="32" height="34" as="alternateBounds" />
          </mxGeometry>
        </mxCell>
        <mxCell id="12ZrEhQPK1PJFxmt8RGr-5" value="3" style="shape=partialRectangle;html=1;whiteSpace=wrap;connectable=0;strokeColor=inherit;overflow=hidden;fillColor=none;top=0;left=0;bottom=0;right=0;pointerEvents=1;fontSize=16;" vertex="1" parent="12ZrEhQPK1PJFxmt8RGr-2">
          <mxGeometry x="66" width="34" height="34" as="geometry">
            <mxRectangle width="34" height="34" as="alternateBounds" />
          </mxGeometry>
        </mxCell>
        <mxCell id="12ZrEhQPK1PJFxmt8RGr-6" value="" style="shape=tableRow;horizontal=0;startSize=0;swimlaneHead=0;swimlaneBody=0;strokeColor=inherit;top=0;left=0;bottom=0;right=0;collapsible=0;dropTarget=0;fillColor=none;points=[[0,0.5],[1,0.5]];portConstraint=eastwest;fontSize=16;" vertex="1" parent="12ZrEhQPK1PJFxmt8RGr-1">
          <mxGeometry y="34" width="100" height="32" as="geometry" />
        </mxCell>
        <mxCell id="12ZrEhQPK1PJFxmt8RGr-7" value="0" style="shape=partialRectangle;html=1;whiteSpace=wrap;connectable=0;strokeColor=inherit;overflow=hidden;fillColor=none;top=0;left=0;bottom=0;right=0;pointerEvents=1;fontSize=16;" vertex="1" parent="12ZrEhQPK1PJFxmt8RGr-6">
          <mxGeometry width="34" height="32" as="geometry">
            <mxRectangle width="34" height="32" as="alternateBounds" />
          </mxGeometry>
        </mxCell>
        <mxCell id="12ZrEhQPK1PJFxmt8RGr-8" value="C" style="shape=partialRectangle;html=1;whiteSpace=wrap;connectable=0;strokeColor=inherit;overflow=hidden;fillColor=none;top=0;left=0;bottom=0;right=0;pointerEvents=1;fontSize=16;" vertex="1" parent="12ZrEhQPK1PJFxmt8RGr-6">
          <mxGeometry x="34" width="32" height="32" as="geometry">
            <mxRectangle width="32" height="32" as="alternateBounds" />
          </mxGeometry>
        </mxCell>
        <mxCell id="12ZrEhQPK1PJFxmt8RGr-9" value="0" style="shape=partialRectangle;html=1;whiteSpace=wrap;connectable=0;strokeColor=inherit;overflow=hidden;fillColor=none;top=0;left=0;bottom=0;right=0;pointerEvents=1;fontSize=16;" vertex="1" parent="12ZrEhQPK1PJFxmt8RGr-6">
          <mxGeometry x="66" width="34" height="32" as="geometry">
            <mxRectangle width="34" height="32" as="alternateBounds" />
          </mxGeometry>
        </mxCell>
        <mxCell id="12ZrEhQPK1PJFxmt8RGr-10" value="" style="shape=tableRow;horizontal=0;startSize=0;swimlaneHead=0;swimlaneBody=0;strokeColor=inherit;top=0;left=0;bottom=0;right=0;collapsible=0;dropTarget=0;fillColor=none;points=[[0,0.5],[1,0.5]];portConstraint=eastwest;fontSize=16;" vertex="1" parent="12ZrEhQPK1PJFxmt8RGr-1">
          <mxGeometry y="66" width="100" height="34" as="geometry" />
        </mxCell>
        <mxCell id="12ZrEhQPK1PJFxmt8RGr-11" value="0" style="shape=partialRectangle;html=1;whiteSpace=wrap;connectable=0;strokeColor=inherit;overflow=hidden;fillColor=none;top=0;left=0;bottom=0;right=0;pointerEvents=1;fontSize=16;" vertex="1" parent="12ZrEhQPK1PJFxmt8RGr-10">
          <mxGeometry width="34" height="34" as="geometry">
            <mxRectangle width="34" height="34" as="alternateBounds" />
          </mxGeometry>
        </mxCell>
        <mxCell id="12ZrEhQPK1PJFxmt8RGr-12" value="3" style="shape=partialRectangle;html=1;whiteSpace=wrap;connectable=0;strokeColor=inherit;overflow=hidden;fillColor=none;top=0;left=0;bottom=0;right=0;pointerEvents=1;fontSize=16;" vertex="1" parent="12ZrEhQPK1PJFxmt8RGr-10">
          <mxGeometry x="34" width="32" height="34" as="geometry">
            <mxRectangle width="32" height="34" as="alternateBounds" />
          </mxGeometry>
        </mxCell>
        <mxCell id="12ZrEhQPK1PJFxmt8RGr-13" value="3" style="shape=partialRectangle;html=1;whiteSpace=wrap;connectable=0;strokeColor=inherit;overflow=hidden;fillColor=none;top=0;left=0;bottom=0;right=0;pointerEvents=1;fontSize=16;" vertex="1" parent="12ZrEhQPK1PJFxmt8RGr-10">
          <mxGeometry x="66" width="34" height="34" as="geometry">
            <mxRectangle width="34" height="34" as="alternateBounds" />
          </mxGeometry>
        </mxCell>
        <mxCell id="12ZrEhQPK1PJFxmt8RGr-14" value="" style="shape=table;startSize=0;container=1;collapsible=0;childLayout=tableLayout;fontSize=16;" vertex="1" parent="1">
          <mxGeometry x="200" y="110" width="100" height="100" as="geometry" />
        </mxCell>
        <mxCell id="12ZrEhQPK1PJFxmt8RGr-15" value="" style="shape=tableRow;horizontal=0;startSize=0;swimlaneHead=0;swimlaneBody=0;strokeColor=inherit;top=0;left=0;bottom=0;right=0;collapsible=0;dropTarget=0;fillColor=none;points=[[0,0.5],[1,0.5]];portConstraint=eastwest;fontSize=16;" vertex="1" parent="12ZrEhQPK1PJFxmt8RGr-14">
          <mxGeometry width="100" height="34" as="geometry" />
        </mxCell>
        <mxCell id="12ZrEhQPK1PJFxmt8RGr-16" value="3" style="shape=partialRectangle;html=1;whiteSpace=wrap;connectable=0;strokeColor=inherit;overflow=hidden;fillColor=none;top=0;left=0;bottom=0;right=0;pointerEvents=1;fontSize=16;" vertex="1" parent="12ZrEhQPK1PJFxmt8RGr-15">
          <mxGeometry width="34" height="34" as="geometry">
            <mxRectangle width="34" height="34" as="alternateBounds" />
          </mxGeometry>
        </mxCell>
        <mxCell id="12ZrEhQPK1PJFxmt8RGr-17" value="3" style="shape=partialRectangle;html=1;whiteSpace=wrap;connectable=0;strokeColor=inherit;overflow=hidden;fillColor=none;top=0;left=0;bottom=0;right=0;pointerEvents=1;fontSize=16;" vertex="1" parent="12ZrEhQPK1PJFxmt8RGr-15">
          <mxGeometry x="34" width="32" height="34" as="geometry">
            <mxRectangle width="32" height="34" as="alternateBounds" />
          </mxGeometry>
        </mxCell>
        <mxCell id="12ZrEhQPK1PJFxmt8RGr-18" value="4" style="shape=partialRectangle;html=1;whiteSpace=wrap;connectable=0;strokeColor=inherit;overflow=hidden;fillColor=none;top=0;left=0;bottom=0;right=0;pointerEvents=1;fontSize=16;" vertex="1" parent="12ZrEhQPK1PJFxmt8RGr-15">
          <mxGeometry x="66" width="34" height="34" as="geometry">
            <mxRectangle width="34" height="34" as="alternateBounds" />
          </mxGeometry>
        </mxCell>
        <mxCell id="12ZrEhQPK1PJFxmt8RGr-19" value="" style="shape=tableRow;horizontal=0;startSize=0;swimlaneHead=0;swimlaneBody=0;strokeColor=inherit;top=0;left=0;bottom=0;right=0;collapsible=0;dropTarget=0;fillColor=none;points=[[0,0.5],[1,0.5]];portConstraint=eastwest;fontSize=16;" vertex="1" parent="12ZrEhQPK1PJFxmt8RGr-14">
          <mxGeometry y="34" width="100" height="32" as="geometry" />
        </mxCell>
        <mxCell id="12ZrEhQPK1PJFxmt8RGr-20" value="0" style="shape=partialRectangle;html=1;whiteSpace=wrap;connectable=0;strokeColor=inherit;overflow=hidden;fillColor=none;top=0;left=0;bottom=0;right=0;pointerEvents=1;fontSize=16;" vertex="1" parent="12ZrEhQPK1PJFxmt8RGr-19">
          <mxGeometry width="34" height="32" as="geometry">
            <mxRectangle width="34" height="32" as="alternateBounds" />
          </mxGeometry>
        </mxCell>
        <mxCell id="12ZrEhQPK1PJFxmt8RGr-21" value="C" style="shape=partialRectangle;html=1;whiteSpace=wrap;connectable=0;strokeColor=inherit;overflow=hidden;fillColor=none;top=0;left=0;bottom=0;right=0;pointerEvents=1;fontSize=16;" vertex="1" parent="12ZrEhQPK1PJFxmt8RGr-19">
          <mxGeometry x="34" width="32" height="32" as="geometry">
            <mxRectangle width="32" height="32" as="alternateBounds" />
          </mxGeometry>
        </mxCell>
        <mxCell id="12ZrEhQPK1PJFxmt8RGr-22" value="0" style="shape=partialRectangle;html=1;whiteSpace=wrap;connectable=0;strokeColor=inherit;overflow=hidden;fillColor=none;top=0;left=0;bottom=0;right=0;pointerEvents=1;fontSize=16;" vertex="1" parent="12ZrEhQPK1PJFxmt8RGr-19">
          <mxGeometry x="66" width="34" height="32" as="geometry">
            <mxRectangle width="34" height="32" as="alternateBounds" />
          </mxGeometry>
        </mxCell>
        <mxCell id="12ZrEhQPK1PJFxmt8RGr-23" value="" style="shape=tableRow;horizontal=0;startSize=0;swimlaneHead=0;swimlaneBody=0;strokeColor=inherit;top=0;left=0;bottom=0;right=0;collapsible=0;dropTarget=0;fillColor=none;points=[[0,0.5],[1,0.5]];portConstraint=eastwest;fontSize=16;" vertex="1" parent="12ZrEhQPK1PJFxmt8RGr-14">
          <mxGeometry y="66" width="100" height="34" as="geometry" />
        </mxCell>
        <mxCell id="12ZrEhQPK1PJFxmt8RGr-24" value="3" style="shape=partialRectangle;html=1;whiteSpace=wrap;connectable=0;strokeColor=inherit;overflow=hidden;fillColor=none;top=0;left=0;bottom=0;right=0;pointerEvents=1;fontSize=16;" vertex="1" parent="12ZrEhQPK1PJFxmt8RGr-23">
          <mxGeometry width="34" height="34" as="geometry">
            <mxRectangle width="34" height="34" as="alternateBounds" />
          </mxGeometry>
        </mxCell>
        <mxCell id="12ZrEhQPK1PJFxmt8RGr-25" value="1" style="shape=partialRectangle;html=1;whiteSpace=wrap;connectable=0;strokeColor=inherit;overflow=hidden;fillColor=none;top=0;left=0;bottom=0;right=0;pointerEvents=1;fontSize=16;" vertex="1" parent="12ZrEhQPK1PJFxmt8RGr-23">
          <mxGeometry x="34" width="32" height="34" as="geometry">
            <mxRectangle width="32" height="34" as="alternateBounds" />
          </mxGeometry>
        </mxCell>
        <mxCell id="12ZrEhQPK1PJFxmt8RGr-26" value="4" style="shape=partialRectangle;html=1;whiteSpace=wrap;connectable=0;strokeColor=inherit;overflow=hidden;fillColor=none;top=0;left=0;bottom=0;right=0;pointerEvents=1;fontSize=16;" vertex="1" parent="12ZrEhQPK1PJFxmt8RGr-23">
          <mxGeometry x="66" width="34" height="34" as="geometry">
            <mxRectangle width="34" height="34" as="alternateBounds" />
          </mxGeometry>
        </mxCell>
        <mxCell id="12ZrEhQPK1PJFxmt8RGr-83" value="" style="shape=table;startSize=0;container=1;collapsible=0;childLayout=tableLayout;fontSize=16;" vertex="1" parent="12ZrEhQPK1PJFxmt8RGr-23">
          <mxGeometry x="100" width="NaN" height="34" as="geometry">
            <mxRectangle width="NaN" height="34" as="alternateBounds" />
          </mxGeometry>
        </mxCell>
        <mxCell id="12ZrEhQPK1PJFxmt8RGr-84" value="" style="shape=tableRow;horizontal=0;startSize=0;swimlaneHead=0;swimlaneBody=0;strokeColor=inherit;top=0;left=0;bottom=0;right=0;collapsible=0;dropTarget=0;fillColor=none;points=[[0,0.5],[1,0.5]];portConstraint=eastwest;fontSize=16;" vertex="1" visible="0" parent="12ZrEhQPK1PJFxmt8RGr-83">
          <mxGeometry width="100" height="34" as="geometry" />
        </mxCell>
        <mxCell id="12ZrEhQPK1PJFxmt8RGr-85" value="0" style="shape=partialRectangle;html=1;whiteSpace=wrap;connectable=0;strokeColor=inherit;overflow=hidden;fillColor=none;top=0;left=0;bottom=0;right=0;pointerEvents=1;fontSize=16;" vertex="1" parent="12ZrEhQPK1PJFxmt8RGr-84">
          <mxGeometry width="34" height="34" as="geometry">
            <mxRectangle width="34" height="34" as="alternateBounds" />
          </mxGeometry>
        </mxCell>
        <mxCell id="12ZrEhQPK1PJFxmt8RGr-86" value="1" style="shape=partialRectangle;html=1;whiteSpace=wrap;connectable=0;strokeColor=inherit;overflow=hidden;fillColor=none;top=0;left=0;bottom=0;right=0;pointerEvents=1;fontSize=16;" vertex="1" parent="12ZrEhQPK1PJFxmt8RGr-84">
          <mxGeometry x="34" width="32" height="34" as="geometry">
            <mxRectangle width="32" height="34" as="alternateBounds" />
          </mxGeometry>
        </mxCell>
        <mxCell id="12ZrEhQPK1PJFxmt8RGr-87" value="3" style="shape=partialRectangle;html=1;whiteSpace=wrap;connectable=0;strokeColor=inherit;overflow=hidden;fillColor=none;top=0;left=0;bottom=0;right=0;pointerEvents=1;fontSize=16;" vertex="1" parent="12ZrEhQPK1PJFxmt8RGr-84">
          <mxGeometry x="66" width="34" height="34" as="geometry">
            <mxRectangle width="34" height="34" as="alternateBounds" />
          </mxGeometry>
        </mxCell>
        <mxCell id="12ZrEhQPK1PJFxmt8RGr-88" value="" style="shape=tableRow;horizontal=0;startSize=0;swimlaneHead=0;swimlaneBody=0;strokeColor=inherit;top=0;left=0;bottom=0;right=0;collapsible=0;dropTarget=0;fillColor=none;points=[[0,0.5],[1,0.5]];portConstraint=eastwest;fontSize=16;" vertex="1" visible="0" parent="12ZrEhQPK1PJFxmt8RGr-83">
          <mxGeometry y="34" width="100" height="32" as="geometry" />
        </mxCell>
        <mxCell id="12ZrEhQPK1PJFxmt8RGr-89" value="0" style="shape=partialRectangle;html=1;whiteSpace=wrap;connectable=0;strokeColor=inherit;overflow=hidden;fillColor=none;top=0;left=0;bottom=0;right=0;pointerEvents=1;fontSize=16;" vertex="1" parent="12ZrEhQPK1PJFxmt8RGr-88">
          <mxGeometry width="34" height="32" as="geometry">
            <mxRectangle width="34" height="32" as="alternateBounds" />
          </mxGeometry>
        </mxCell>
        <mxCell id="12ZrEhQPK1PJFxmt8RGr-90" value="C" style="shape=partialRectangle;html=1;whiteSpace=wrap;connectable=0;strokeColor=inherit;overflow=hidden;fillColor=none;top=0;left=0;bottom=0;right=0;pointerEvents=1;fontSize=16;" vertex="1" parent="12ZrEhQPK1PJFxmt8RGr-88">
          <mxGeometry x="34" width="32" height="32" as="geometry">
            <mxRectangle width="32" height="32" as="alternateBounds" />
          </mxGeometry>
        </mxCell>
        <mxCell id="12ZrEhQPK1PJFxmt8RGr-91" value="0" style="shape=partialRectangle;html=1;whiteSpace=wrap;connectable=0;strokeColor=inherit;overflow=hidden;fillColor=none;top=0;left=0;bottom=0;right=0;pointerEvents=1;fontSize=16;" vertex="1" parent="12ZrEhQPK1PJFxmt8RGr-88">
          <mxGeometry x="66" width="34" height="32" as="geometry">
            <mxRectangle width="34" height="32" as="alternateBounds" />
          </mxGeometry>
        </mxCell>
        <mxCell id="12ZrEhQPK1PJFxmt8RGr-92" value="" style="shape=tableRow;horizontal=0;startSize=0;swimlaneHead=0;swimlaneBody=0;strokeColor=inherit;top=0;left=0;bottom=0;right=0;collapsible=0;dropTarget=0;fillColor=none;points=[[0,0.5],[1,0.5]];portConstraint=eastwest;fontSize=16;" vertex="1" visible="0" parent="12ZrEhQPK1PJFxmt8RGr-83">
          <mxGeometry y="66" width="100" height="34" as="geometry" />
        </mxCell>
        <mxCell id="12ZrEhQPK1PJFxmt8RGr-93" value="0" style="shape=partialRectangle;html=1;whiteSpace=wrap;connectable=0;strokeColor=inherit;overflow=hidden;fillColor=none;top=0;left=0;bottom=0;right=0;pointerEvents=1;fontSize=16;" vertex="1" parent="12ZrEhQPK1PJFxmt8RGr-92">
          <mxGeometry width="34" height="34" as="geometry">
            <mxRectangle width="34" height="34" as="alternateBounds" />
          </mxGeometry>
        </mxCell>
        <mxCell id="12ZrEhQPK1PJFxmt8RGr-94" value="3" style="shape=partialRectangle;html=1;whiteSpace=wrap;connectable=0;strokeColor=inherit;overflow=hidden;fillColor=none;top=0;left=0;bottom=0;right=0;pointerEvents=1;fontSize=16;" vertex="1" parent="12ZrEhQPK1PJFxmt8RGr-92">
          <mxGeometry x="34" width="32" height="34" as="geometry">
            <mxRectangle width="32" height="34" as="alternateBounds" />
          </mxGeometry>
        </mxCell>
        <mxCell id="12ZrEhQPK1PJFxmt8RGr-95" value="3" style="shape=partialRectangle;html=1;whiteSpace=wrap;connectable=0;strokeColor=inherit;overflow=hidden;fillColor=none;top=0;left=0;bottom=0;right=0;pointerEvents=1;fontSize=16;" vertex="1" parent="12ZrEhQPK1PJFxmt8RGr-92">
          <mxGeometry x="66" width="34" height="34" as="geometry">
            <mxRectangle width="34" height="34" as="alternateBounds" />
          </mxGeometry>
        </mxCell>
        <mxCell id="12ZrEhQPK1PJFxmt8RGr-31" value="" style="shape=table;startSize=0;container=1;collapsible=0;childLayout=tableLayout;fontSize=16;" vertex="1" parent="1">
          <mxGeometry x="350" y="10" width="100" height="100" as="geometry" />
        </mxCell>
        <mxCell id="12ZrEhQPK1PJFxmt8RGr-32" value="" style="shape=tableRow;horizontal=0;startSize=0;swimlaneHead=0;swimlaneBody=0;strokeColor=inherit;top=0;left=0;bottom=0;right=0;collapsible=0;dropTarget=0;fillColor=none;points=[[0,0.5],[1,0.5]];portConstraint=eastwest;fontSize=16;" vertex="1" parent="12ZrEhQPK1PJFxmt8RGr-31">
          <mxGeometry width="100" height="34" as="geometry" />
        </mxCell>
        <mxCell id="12ZrEhQPK1PJFxmt8RGr-33" value="4" style="shape=partialRectangle;html=1;whiteSpace=wrap;connectable=0;strokeColor=inherit;overflow=hidden;fillColor=none;top=0;left=0;bottom=0;right=0;pointerEvents=1;fontSize=16;" vertex="1" parent="12ZrEhQPK1PJFxmt8RGr-32">
          <mxGeometry width="34" height="34" as="geometry">
            <mxRectangle width="34" height="34" as="alternateBounds" />
          </mxGeometry>
        </mxCell>
        <mxCell id="12ZrEhQPK1PJFxmt8RGr-34" value="2" style="shape=partialRectangle;html=1;whiteSpace=wrap;connectable=0;strokeColor=inherit;overflow=hidden;fillColor=none;top=0;left=0;bottom=0;right=0;pointerEvents=1;fontSize=16;" vertex="1" parent="12ZrEhQPK1PJFxmt8RGr-32">
          <mxGeometry x="34" width="32" height="34" as="geometry">
            <mxRectangle width="32" height="34" as="alternateBounds" />
          </mxGeometry>
        </mxCell>
        <mxCell id="12ZrEhQPK1PJFxmt8RGr-35" value="8" style="shape=partialRectangle;html=1;whiteSpace=wrap;connectable=0;strokeColor=inherit;overflow=hidden;fillColor=none;top=0;left=0;bottom=0;right=0;pointerEvents=1;fontSize=16;" vertex="1" parent="12ZrEhQPK1PJFxmt8RGr-32">
          <mxGeometry x="66" width="34" height="34" as="geometry">
            <mxRectangle width="34" height="34" as="alternateBounds" />
          </mxGeometry>
        </mxCell>
        <mxCell id="12ZrEhQPK1PJFxmt8RGr-36" value="" style="shape=tableRow;horizontal=0;startSize=0;swimlaneHead=0;swimlaneBody=0;strokeColor=inherit;top=0;left=0;bottom=0;right=0;collapsible=0;dropTarget=0;fillColor=none;points=[[0,0.5],[1,0.5]];portConstraint=eastwest;fontSize=16;" vertex="1" parent="12ZrEhQPK1PJFxmt8RGr-31">
          <mxGeometry y="34" width="100" height="32" as="geometry" />
        </mxCell>
        <mxCell id="12ZrEhQPK1PJFxmt8RGr-37" value="0" style="shape=partialRectangle;html=1;whiteSpace=wrap;connectable=0;strokeColor=inherit;overflow=hidden;fillColor=none;top=0;left=0;bottom=0;right=0;pointerEvents=1;fontSize=16;" vertex="1" parent="12ZrEhQPK1PJFxmt8RGr-36">
          <mxGeometry width="34" height="32" as="geometry">
            <mxRectangle width="34" height="32" as="alternateBounds" />
          </mxGeometry>
        </mxCell>
        <mxCell id="12ZrEhQPK1PJFxmt8RGr-38" value="C" style="shape=partialRectangle;html=1;whiteSpace=wrap;connectable=0;strokeColor=inherit;overflow=hidden;fillColor=none;top=0;left=0;bottom=0;right=0;pointerEvents=1;fontSize=16;" vertex="1" parent="12ZrEhQPK1PJFxmt8RGr-36">
          <mxGeometry x="34" width="32" height="32" as="geometry">
            <mxRectangle width="32" height="32" as="alternateBounds" />
          </mxGeometry>
        </mxCell>
        <mxCell id="12ZrEhQPK1PJFxmt8RGr-39" value="0" style="shape=partialRectangle;html=1;whiteSpace=wrap;connectable=0;strokeColor=inherit;overflow=hidden;fillColor=none;top=0;left=0;bottom=0;right=0;pointerEvents=1;fontSize=16;" vertex="1" parent="12ZrEhQPK1PJFxmt8RGr-36">
          <mxGeometry x="66" width="34" height="32" as="geometry">
            <mxRectangle width="34" height="32" as="alternateBounds" />
          </mxGeometry>
        </mxCell>
        <mxCell id="12ZrEhQPK1PJFxmt8RGr-40" value="" style="shape=tableRow;horizontal=0;startSize=0;swimlaneHead=0;swimlaneBody=0;strokeColor=inherit;top=0;left=0;bottom=0;right=0;collapsible=0;dropTarget=0;fillColor=none;points=[[0,0.5],[1,0.5]];portConstraint=eastwest;fontSize=16;" vertex="1" parent="12ZrEhQPK1PJFxmt8RGr-31">
          <mxGeometry y="66" width="100" height="34" as="geometry" />
        </mxCell>
        <mxCell id="12ZrEhQPK1PJFxmt8RGr-41" value="4" style="shape=partialRectangle;html=1;whiteSpace=wrap;connectable=0;strokeColor=inherit;overflow=hidden;fillColor=none;top=0;left=0;bottom=0;right=0;pointerEvents=1;fontSize=16;" vertex="1" parent="12ZrEhQPK1PJFxmt8RGr-40">
          <mxGeometry width="34" height="34" as="geometry">
            <mxRectangle width="34" height="34" as="alternateBounds" />
          </mxGeometry>
        </mxCell>
        <mxCell id="12ZrEhQPK1PJFxmt8RGr-42" value="4" style="shape=partialRectangle;html=1;whiteSpace=wrap;connectable=0;strokeColor=inherit;overflow=hidden;fillColor=none;top=0;left=0;bottom=0;right=0;pointerEvents=1;fontSize=16;" vertex="1" parent="12ZrEhQPK1PJFxmt8RGr-40">
          <mxGeometry x="34" width="32" height="34" as="geometry">
            <mxRectangle width="32" height="34" as="alternateBounds" />
          </mxGeometry>
        </mxCell>
        <mxCell id="12ZrEhQPK1PJFxmt8RGr-43" value="8" style="shape=partialRectangle;html=1;whiteSpace=wrap;connectable=0;strokeColor=inherit;overflow=hidden;fillColor=none;top=0;left=0;bottom=0;right=0;pointerEvents=1;fontSize=16;" vertex="1" parent="12ZrEhQPK1PJFxmt8RGr-40">
          <mxGeometry x="66" width="34" height="34" as="geometry">
            <mxRectangle width="34" height="34" as="alternateBounds" />
          </mxGeometry>
        </mxCell>
        <mxCell id="12ZrEhQPK1PJFxmt8RGr-44" value="" style="shape=table;startSize=0;container=1;collapsible=0;childLayout=tableLayout;fontSize=16;" vertex="1" parent="1">
          <mxGeometry x="350" y="220" width="100" height="100" as="geometry" />
        </mxCell>
        <mxCell id="12ZrEhQPK1PJFxmt8RGr-45" value="" style="shape=tableRow;horizontal=0;startSize=0;swimlaneHead=0;swimlaneBody=0;strokeColor=inherit;top=0;left=0;bottom=0;right=0;collapsible=0;dropTarget=0;fillColor=none;points=[[0,0.5],[1,0.5]];portConstraint=eastwest;fontSize=16;" vertex="1" parent="12ZrEhQPK1PJFxmt8RGr-44">
          <mxGeometry width="100" height="34" as="geometry" />
        </mxCell>
        <mxCell id="12ZrEhQPK1PJFxmt8RGr-46" value="4" style="shape=partialRectangle;html=1;whiteSpace=wrap;connectable=0;strokeColor=inherit;overflow=hidden;fillColor=none;top=0;left=0;bottom=0;right=0;pointerEvents=1;fontSize=16;" vertex="1" parent="12ZrEhQPK1PJFxmt8RGr-45">
          <mxGeometry width="34" height="34" as="geometry">
            <mxRectangle width="34" height="34" as="alternateBounds" />
          </mxGeometry>
        </mxCell>
        <mxCell id="12ZrEhQPK1PJFxmt8RGr-47" value="5" style="shape=partialRectangle;html=1;whiteSpace=wrap;connectable=0;strokeColor=inherit;overflow=hidden;fillColor=none;top=0;left=0;bottom=0;right=0;pointerEvents=1;fontSize=16;" vertex="1" parent="12ZrEhQPK1PJFxmt8RGr-45">
          <mxGeometry x="34" width="32" height="34" as="geometry">
            <mxRectangle width="32" height="34" as="alternateBounds" />
          </mxGeometry>
        </mxCell>
        <mxCell id="12ZrEhQPK1PJFxmt8RGr-48" value="9" style="shape=partialRectangle;html=1;whiteSpace=wrap;connectable=0;strokeColor=inherit;overflow=hidden;fillColor=none;top=0;left=0;bottom=0;right=0;pointerEvents=1;fontSize=16;" vertex="1" parent="12ZrEhQPK1PJFxmt8RGr-45">
          <mxGeometry x="66" width="34" height="34" as="geometry">
            <mxRectangle width="34" height="34" as="alternateBounds" />
          </mxGeometry>
        </mxCell>
        <mxCell id="12ZrEhQPK1PJFxmt8RGr-49" value="" style="shape=tableRow;horizontal=0;startSize=0;swimlaneHead=0;swimlaneBody=0;strokeColor=inherit;top=0;left=0;bottom=0;right=0;collapsible=0;dropTarget=0;fillColor=none;points=[[0,0.5],[1,0.5]];portConstraint=eastwest;fontSize=16;" vertex="1" parent="12ZrEhQPK1PJFxmt8RGr-44">
          <mxGeometry y="34" width="100" height="32" as="geometry" />
        </mxCell>
        <mxCell id="12ZrEhQPK1PJFxmt8RGr-50" value="0" style="shape=partialRectangle;html=1;whiteSpace=wrap;connectable=0;strokeColor=inherit;overflow=hidden;fillColor=none;top=0;left=0;bottom=0;right=0;pointerEvents=1;fontSize=16;" vertex="1" parent="12ZrEhQPK1PJFxmt8RGr-49">
          <mxGeometry width="34" height="32" as="geometry">
            <mxRectangle width="34" height="32" as="alternateBounds" />
          </mxGeometry>
        </mxCell>
        <mxCell id="12ZrEhQPK1PJFxmt8RGr-51" value="2-E" style="shape=partialRectangle;html=1;whiteSpace=wrap;connectable=0;strokeColor=inherit;overflow=hidden;fillColor=none;top=0;left=0;bottom=0;right=0;pointerEvents=1;fontSize=16;" vertex="1" parent="12ZrEhQPK1PJFxmt8RGr-49">
          <mxGeometry x="34" width="32" height="32" as="geometry">
            <mxRectangle width="32" height="32" as="alternateBounds" />
          </mxGeometry>
        </mxCell>
        <mxCell id="12ZrEhQPK1PJFxmt8RGr-52" value="0" style="shape=partialRectangle;html=1;whiteSpace=wrap;connectable=0;strokeColor=inherit;overflow=hidden;fillColor=none;top=0;left=0;bottom=0;right=0;pointerEvents=1;fontSize=16;" vertex="1" parent="12ZrEhQPK1PJFxmt8RGr-49">
          <mxGeometry x="66" width="34" height="32" as="geometry">
            <mxRectangle width="34" height="32" as="alternateBounds" />
          </mxGeometry>
        </mxCell>
        <mxCell id="12ZrEhQPK1PJFxmt8RGr-53" value="" style="shape=tableRow;horizontal=0;startSize=0;swimlaneHead=0;swimlaneBody=0;strokeColor=inherit;top=0;left=0;bottom=0;right=0;collapsible=0;dropTarget=0;fillColor=none;points=[[0,0.5],[1,0.5]];portConstraint=eastwest;fontSize=16;" vertex="1" parent="12ZrEhQPK1PJFxmt8RGr-44">
          <mxGeometry y="66" width="100" height="34" as="geometry" />
        </mxCell>
        <mxCell id="12ZrEhQPK1PJFxmt8RGr-54" value="4" style="shape=partialRectangle;html=1;whiteSpace=wrap;connectable=0;strokeColor=inherit;overflow=hidden;fillColor=none;top=0;left=0;bottom=0;right=0;pointerEvents=1;fontSize=16;" vertex="1" parent="12ZrEhQPK1PJFxmt8RGr-53">
          <mxGeometry width="34" height="34" as="geometry">
            <mxRectangle width="34" height="34" as="alternateBounds" />
          </mxGeometry>
        </mxCell>
        <mxCell id="12ZrEhQPK1PJFxmt8RGr-55" value="5" style="shape=partialRectangle;html=1;whiteSpace=wrap;connectable=0;strokeColor=inherit;overflow=hidden;fillColor=none;top=0;left=0;bottom=0;right=0;pointerEvents=1;fontSize=16;" vertex="1" parent="12ZrEhQPK1PJFxmt8RGr-53">
          <mxGeometry x="34" width="32" height="34" as="geometry">
            <mxRectangle width="32" height="34" as="alternateBounds" />
          </mxGeometry>
        </mxCell>
        <mxCell id="12ZrEhQPK1PJFxmt8RGr-56" value="9" style="shape=partialRectangle;html=1;whiteSpace=wrap;connectable=0;strokeColor=inherit;overflow=hidden;fillColor=none;top=0;left=0;bottom=0;right=0;pointerEvents=1;fontSize=16;" vertex="1" parent="12ZrEhQPK1PJFxmt8RGr-53">
          <mxGeometry x="66" width="34" height="34" as="geometry">
            <mxRectangle width="34" height="34" as="alternateBounds" />
          </mxGeometry>
        </mxCell>
        <mxCell id="12ZrEhQPK1PJFxmt8RGr-57" value="" style="shape=table;startSize=0;container=1;collapsible=0;childLayout=tableLayout;fontSize=16;" vertex="1" parent="1">
          <mxGeometry x="500" y="110" width="100" height="100" as="geometry" />
        </mxCell>
        <mxCell id="12ZrEhQPK1PJFxmt8RGr-58" value="" style="shape=tableRow;horizontal=0;startSize=0;swimlaneHead=0;swimlaneBody=0;strokeColor=inherit;top=0;left=0;bottom=0;right=0;collapsible=0;dropTarget=0;fillColor=none;points=[[0,0.5],[1,0.5]];portConstraint=eastwest;fontSize=16;" vertex="1" parent="12ZrEhQPK1PJFxmt8RGr-57">
          <mxGeometry width="100" height="34" as="geometry" />
        </mxCell>
        <mxCell id="12ZrEhQPK1PJFxmt8RGr-59" value="9" style="shape=partialRectangle;html=1;whiteSpace=wrap;connectable=0;strokeColor=inherit;overflow=hidden;fillColor=none;top=0;left=0;bottom=0;right=0;pointerEvents=1;fontSize=16;" vertex="1" parent="12ZrEhQPK1PJFxmt8RGr-58">
          <mxGeometry width="34" height="34" as="geometry">
            <mxRectangle width="34" height="34" as="alternateBounds" />
          </mxGeometry>
        </mxCell>
        <mxCell id="12ZrEhQPK1PJFxmt8RGr-60" value="4" style="shape=partialRectangle;html=1;whiteSpace=wrap;connectable=0;strokeColor=inherit;overflow=hidden;fillColor=none;top=0;left=0;bottom=0;right=0;pointerEvents=1;fontSize=16;" vertex="1" parent="12ZrEhQPK1PJFxmt8RGr-58">
          <mxGeometry x="34" width="32" height="34" as="geometry">
            <mxRectangle width="32" height="34" as="alternateBounds" />
          </mxGeometry>
        </mxCell>
        <mxCell id="12ZrEhQPK1PJFxmt8RGr-61" value="12" style="shape=partialRectangle;html=1;whiteSpace=wrap;connectable=0;strokeColor=inherit;overflow=hidden;fillColor=none;top=0;left=0;bottom=0;right=0;pointerEvents=1;fontSize=16;" vertex="1" parent="12ZrEhQPK1PJFxmt8RGr-58">
          <mxGeometry x="66" width="34" height="34" as="geometry">
            <mxRectangle width="34" height="34" as="alternateBounds" />
          </mxGeometry>
        </mxCell>
        <mxCell id="12ZrEhQPK1PJFxmt8RGr-62" value="" style="shape=tableRow;horizontal=0;startSize=0;swimlaneHead=0;swimlaneBody=0;strokeColor=inherit;top=0;left=0;bottom=0;right=0;collapsible=0;dropTarget=0;fillColor=none;points=[[0,0.5],[1,0.5]];portConstraint=eastwest;fontSize=16;" vertex="1" parent="12ZrEhQPK1PJFxmt8RGr-57">
          <mxGeometry y="34" width="100" height="32" as="geometry" />
        </mxCell>
        <mxCell id="12ZrEhQPK1PJFxmt8RGr-63" value="0" style="shape=partialRectangle;html=1;whiteSpace=wrap;connectable=0;strokeColor=inherit;overflow=hidden;fillColor=none;top=0;left=0;bottom=0;right=0;pointerEvents=1;fontSize=16;" vertex="1" parent="12ZrEhQPK1PJFxmt8RGr-62">
          <mxGeometry width="34" height="32" as="geometry">
            <mxRectangle width="34" height="32" as="alternateBounds" />
          </mxGeometry>
        </mxCell>
        <mxCell id="12ZrEhQPK1PJFxmt8RGr-64" value="E" style="shape=partialRectangle;html=1;whiteSpace=wrap;connectable=0;strokeColor=inherit;overflow=hidden;fillColor=none;top=0;left=0;bottom=0;right=0;pointerEvents=1;fontSize=16;" vertex="1" parent="12ZrEhQPK1PJFxmt8RGr-62">
          <mxGeometry x="34" width="32" height="32" as="geometry">
            <mxRectangle width="32" height="32" as="alternateBounds" />
          </mxGeometry>
        </mxCell>
        <mxCell id="12ZrEhQPK1PJFxmt8RGr-65" value="0" style="shape=partialRectangle;html=1;whiteSpace=wrap;connectable=0;strokeColor=inherit;overflow=hidden;fillColor=none;top=0;left=0;bottom=0;right=0;pointerEvents=1;fontSize=16;" vertex="1" parent="12ZrEhQPK1PJFxmt8RGr-62">
          <mxGeometry x="66" width="34" height="32" as="geometry">
            <mxRectangle width="34" height="32" as="alternateBounds" />
          </mxGeometry>
        </mxCell>
        <mxCell id="12ZrEhQPK1PJFxmt8RGr-66" value="" style="shape=tableRow;horizontal=0;startSize=0;swimlaneHead=0;swimlaneBody=0;strokeColor=inherit;top=0;left=0;bottom=0;right=0;collapsible=0;dropTarget=0;fillColor=none;points=[[0,0.5],[1,0.5]];portConstraint=eastwest;fontSize=16;" vertex="1" parent="12ZrEhQPK1PJFxmt8RGr-57">
          <mxGeometry y="66" width="100" height="34" as="geometry" />
        </mxCell>
        <mxCell id="12ZrEhQPK1PJFxmt8RGr-67" value="9" style="shape=partialRectangle;html=1;whiteSpace=wrap;connectable=0;strokeColor=inherit;overflow=hidden;fillColor=none;top=0;left=0;bottom=0;right=0;pointerEvents=1;fontSize=16;" vertex="1" parent="12ZrEhQPK1PJFxmt8RGr-66">
          <mxGeometry width="34" height="34" as="geometry">
            <mxRectangle width="34" height="34" as="alternateBounds" />
          </mxGeometry>
        </mxCell>
        <mxCell id="12ZrEhQPK1PJFxmt8RGr-68" value="3" style="shape=partialRectangle;html=1;whiteSpace=wrap;connectable=0;strokeColor=inherit;overflow=hidden;fillColor=none;top=0;left=0;bottom=0;right=0;pointerEvents=1;fontSize=16;" vertex="1" parent="12ZrEhQPK1PJFxmt8RGr-66">
          <mxGeometry x="34" width="32" height="34" as="geometry">
            <mxRectangle width="32" height="34" as="alternateBounds" />
          </mxGeometry>
        </mxCell>
        <mxCell id="12ZrEhQPK1PJFxmt8RGr-69" value="12" style="shape=partialRectangle;html=1;whiteSpace=wrap;connectable=0;strokeColor=inherit;overflow=hidden;fillColor=none;top=0;left=0;bottom=0;right=0;pointerEvents=1;fontSize=16;" vertex="1" parent="12ZrEhQPK1PJFxmt8RGr-66">
          <mxGeometry x="66" width="34" height="34" as="geometry">
            <mxRectangle width="34" height="34" as="alternateBounds" />
          </mxGeometry>
        </mxCell>
        <mxCell id="12ZrEhQPK1PJFxmt8RGr-70" value="" style="shape=table;startSize=0;container=1;collapsible=0;childLayout=tableLayout;fontSize=16;" vertex="1" parent="1">
          <mxGeometry x="630" y="110" width="100" height="100" as="geometry" />
        </mxCell>
        <mxCell id="12ZrEhQPK1PJFxmt8RGr-71" value="" style="shape=tableRow;horizontal=0;startSize=0;swimlaneHead=0;swimlaneBody=0;strokeColor=inherit;top=0;left=0;bottom=0;right=0;collapsible=0;dropTarget=0;fillColor=none;points=[[0,0.5],[1,0.5]];portConstraint=eastwest;fontSize=16;" vertex="1" parent="12ZrEhQPK1PJFxmt8RGr-70">
          <mxGeometry width="100" height="34" as="geometry" />
        </mxCell>
        <mxCell id="12ZrEhQPK1PJFxmt8RGr-72" value="12" style="shape=partialRectangle;html=1;whiteSpace=wrap;connectable=0;strokeColor=inherit;overflow=hidden;fillColor=none;top=0;left=0;bottom=0;right=0;pointerEvents=1;fontSize=16;" vertex="1" parent="12ZrEhQPK1PJFxmt8RGr-71">
          <mxGeometry width="34" height="34" as="geometry">
            <mxRectangle width="34" height="34" as="alternateBounds" />
          </mxGeometry>
        </mxCell>
        <mxCell id="12ZrEhQPK1PJFxmt8RGr-73" value="6" style="shape=partialRectangle;html=1;whiteSpace=wrap;connectable=0;strokeColor=inherit;overflow=hidden;fillColor=none;top=0;left=0;bottom=0;right=0;pointerEvents=1;fontSize=16;" vertex="1" parent="12ZrEhQPK1PJFxmt8RGr-71">
          <mxGeometry x="34" width="32" height="34" as="geometry">
            <mxRectangle width="32" height="34" as="alternateBounds" />
          </mxGeometry>
        </mxCell>
        <mxCell id="12ZrEhQPK1PJFxmt8RGr-74" value="14" style="shape=partialRectangle;html=1;whiteSpace=wrap;connectable=0;strokeColor=inherit;overflow=hidden;fillColor=none;top=0;left=0;bottom=0;right=0;pointerEvents=1;fontSize=16;" vertex="1" parent="12ZrEhQPK1PJFxmt8RGr-71">
          <mxGeometry x="66" width="34" height="34" as="geometry">
            <mxRectangle width="34" height="34" as="alternateBounds" />
          </mxGeometry>
        </mxCell>
        <mxCell id="12ZrEhQPK1PJFxmt8RGr-75" value="" style="shape=tableRow;horizontal=0;startSize=0;swimlaneHead=0;swimlaneBody=0;strokeColor=inherit;top=0;left=0;bottom=0;right=0;collapsible=0;dropTarget=0;fillColor=none;points=[[0,0.5],[1,0.5]];portConstraint=eastwest;fontSize=16;" vertex="1" parent="12ZrEhQPK1PJFxmt8RGr-70">
          <mxGeometry y="34" width="100" height="32" as="geometry" />
        </mxCell>
        <mxCell id="12ZrEhQPK1PJFxmt8RGr-76" value="0" style="shape=partialRectangle;html=1;whiteSpace=wrap;connectable=0;strokeColor=inherit;overflow=hidden;fillColor=none;top=0;left=0;bottom=0;right=0;pointerEvents=1;fontSize=16;" vertex="1" parent="12ZrEhQPK1PJFxmt8RGr-75">
          <mxGeometry width="34" height="32" as="geometry">
            <mxRectangle width="34" height="32" as="alternateBounds" />
          </mxGeometry>
        </mxCell>
        <mxCell id="12ZrEhQPK1PJFxmt8RGr-77" value="C" style="shape=partialRectangle;html=1;whiteSpace=wrap;connectable=0;strokeColor=inherit;overflow=hidden;fillColor=none;top=0;left=0;bottom=0;right=0;pointerEvents=1;fontSize=16;" vertex="1" parent="12ZrEhQPK1PJFxmt8RGr-75">
          <mxGeometry x="34" width="32" height="32" as="geometry">
            <mxRectangle width="32" height="32" as="alternateBounds" />
          </mxGeometry>
        </mxCell>
        <mxCell id="12ZrEhQPK1PJFxmt8RGr-78" value="0" style="shape=partialRectangle;html=1;whiteSpace=wrap;connectable=0;strokeColor=inherit;overflow=hidden;fillColor=none;top=0;left=0;bottom=0;right=0;pointerEvents=1;fontSize=16;" vertex="1" parent="12ZrEhQPK1PJFxmt8RGr-75">
          <mxGeometry x="66" width="34" height="32" as="geometry">
            <mxRectangle width="34" height="32" as="alternateBounds" />
          </mxGeometry>
        </mxCell>
        <mxCell id="12ZrEhQPK1PJFxmt8RGr-79" value="" style="shape=tableRow;horizontal=0;startSize=0;swimlaneHead=0;swimlaneBody=0;strokeColor=inherit;top=0;left=0;bottom=0;right=0;collapsible=0;dropTarget=0;fillColor=none;points=[[0,0.5],[1,0.5]];portConstraint=eastwest;fontSize=16;" vertex="1" parent="12ZrEhQPK1PJFxmt8RGr-70">
          <mxGeometry y="66" width="100" height="34" as="geometry" />
        </mxCell>
        <mxCell id="12ZrEhQPK1PJFxmt8RGr-80" value="12" style="shape=partialRectangle;html=1;whiteSpace=wrap;connectable=0;strokeColor=inherit;overflow=hidden;fillColor=none;top=0;left=0;bottom=0;right=0;pointerEvents=1;fontSize=16;" vertex="1" parent="12ZrEhQPK1PJFxmt8RGr-79">
          <mxGeometry width="34" height="34" as="geometry">
            <mxRectangle width="34" height="34" as="alternateBounds" />
          </mxGeometry>
        </mxCell>
        <mxCell id="12ZrEhQPK1PJFxmt8RGr-81" value="2" style="shape=partialRectangle;html=1;whiteSpace=wrap;connectable=0;strokeColor=inherit;overflow=hidden;fillColor=none;top=0;left=0;bottom=0;right=0;pointerEvents=1;fontSize=16;" vertex="1" parent="12ZrEhQPK1PJFxmt8RGr-79">
          <mxGeometry x="34" width="32" height="34" as="geometry">
            <mxRectangle width="32" height="34" as="alternateBounds" />
          </mxGeometry>
        </mxCell>
        <mxCell id="12ZrEhQPK1PJFxmt8RGr-82" value="14" style="shape=partialRectangle;html=1;whiteSpace=wrap;connectable=0;strokeColor=inherit;overflow=hidden;fillColor=none;top=0;left=0;bottom=0;right=0;pointerEvents=1;fontSize=16;" vertex="1" parent="12ZrEhQPK1PJFxmt8RGr-79">
          <mxGeometry x="66" width="34" height="34" as="geometry">
            <mxRectangle width="34" height="34" as="alternateBounds" />
          </mxGeometry>
        </mxCell>
        <mxCell id="12ZrEhQPK1PJFxmt8RGr-96" value="" style="endArrow=classic;html=1;rounded=0;exitX=1;exitY=0.5;exitDx=0;exitDy=0;entryX=0;entryY=0.5;entryDx=0;entryDy=0;" edge="1" parent="1" source="12ZrEhQPK1PJFxmt8RGr-6" target="12ZrEhQPK1PJFxmt8RGr-19">
          <mxGeometry width="50" height="50" relative="1" as="geometry">
            <mxPoint x="170" y="350" as="sourcePoint" />
            <mxPoint x="220" y="300" as="targetPoint" />
          </mxGeometry>
        </mxCell>
        <mxCell id="12ZrEhQPK1PJFxmt8RGr-97" value="" style="endArrow=classic;html=1;rounded=0;entryX=0;entryY=0.5;entryDx=0;entryDy=0;exitX=1;exitY=0.5;exitDx=0;exitDy=0;" edge="1" parent="1" source="12ZrEhQPK1PJFxmt8RGr-19" target="12ZrEhQPK1PJFxmt8RGr-36">
          <mxGeometry width="50" height="50" relative="1" as="geometry">
            <mxPoint x="290" y="310" as="sourcePoint" />
            <mxPoint x="340" y="260" as="targetPoint" />
          </mxGeometry>
        </mxCell>
        <mxCell id="12ZrEhQPK1PJFxmt8RGr-98" value="" style="endArrow=classic;html=1;rounded=0;entryX=0;entryY=0.5;entryDx=0;entryDy=0;exitX=1;exitY=0.5;exitDx=0;exitDy=0;" edge="1" parent="1" source="12ZrEhQPK1PJFxmt8RGr-19" target="12ZrEhQPK1PJFxmt8RGr-49">
          <mxGeometry width="50" height="50" relative="1" as="geometry">
            <mxPoint x="190" y="290" as="sourcePoint" />
            <mxPoint x="240" y="240" as="targetPoint" />
          </mxGeometry>
        </mxCell>
        <mxCell id="12ZrEhQPK1PJFxmt8RGr-99" value="" style="endArrow=classic;html=1;rounded=0;entryX=0;entryY=0.5;entryDx=0;entryDy=0;exitX=1;exitY=0.5;exitDx=0;exitDy=0;" edge="1" parent="1" source="12ZrEhQPK1PJFxmt8RGr-49" target="12ZrEhQPK1PJFxmt8RGr-62">
          <mxGeometry width="50" height="50" relative="1" as="geometry">
            <mxPoint x="140" y="330" as="sourcePoint" />
            <mxPoint x="190" y="280" as="targetPoint" />
          </mxGeometry>
        </mxCell>
        <mxCell id="12ZrEhQPK1PJFxmt8RGr-100" value="" style="endArrow=classic;html=1;rounded=0;exitX=1;exitY=0.5;exitDx=0;exitDy=0;entryX=0;entryY=0.5;entryDx=0;entryDy=0;" edge="1" parent="1" source="12ZrEhQPK1PJFxmt8RGr-36" target="12ZrEhQPK1PJFxmt8RGr-62">
          <mxGeometry width="50" height="50" relative="1" as="geometry">
            <mxPoint x="480" y="80" as="sourcePoint" />
            <mxPoint x="530" y="30" as="targetPoint" />
          </mxGeometry>
        </mxCell>
        <mxCell id="12ZrEhQPK1PJFxmt8RGr-101" value="" style="endArrow=classic;html=1;rounded=0;exitX=1;exitY=0.5;exitDx=0;exitDy=0;entryX=0;entryY=0.5;entryDx=0;entryDy=0;" edge="1" parent="1" source="12ZrEhQPK1PJFxmt8RGr-62" target="12ZrEhQPK1PJFxmt8RGr-75">
          <mxGeometry width="50" height="50" relative="1" as="geometry">
            <mxPoint x="550" y="270" as="sourcePoint" />
            <mxPoint x="600" y="220" as="targetPoint" />
          </mxGeometry>
        </mxCell>
        <mxCell id="12ZrEhQPK1PJFxmt8RGr-102" value="" style="shape=table;startSize=0;container=1;collapsible=0;childLayout=tableLayout;fontSize=16;" vertex="1" parent="1">
          <mxGeometry x="80" y="460" width="100" height="100" as="geometry" />
        </mxCell>
        <mxCell id="12ZrEhQPK1PJFxmt8RGr-103" value="" style="shape=tableRow;horizontal=0;startSize=0;swimlaneHead=0;swimlaneBody=0;strokeColor=inherit;top=0;left=0;bottom=0;right=0;collapsible=0;dropTarget=0;fillColor=none;points=[[0,0.5],[1,0.5]];portConstraint=eastwest;fontSize=16;" vertex="1" parent="12ZrEhQPK1PJFxmt8RGr-102">
          <mxGeometry width="100" height="34" as="geometry" />
        </mxCell>
        <mxCell id="12ZrEhQPK1PJFxmt8RGr-104" value="0" style="shape=partialRectangle;html=1;whiteSpace=wrap;connectable=0;strokeColor=inherit;overflow=hidden;fillColor=none;top=0;left=0;bottom=0;right=0;pointerEvents=1;fontSize=16;" vertex="1" parent="12ZrEhQPK1PJFxmt8RGr-103">
          <mxGeometry width="34" height="34" as="geometry">
            <mxRectangle width="34" height="34" as="alternateBounds" />
          </mxGeometry>
        </mxCell>
        <mxCell id="12ZrEhQPK1PJFxmt8RGr-105" value="1" style="shape=partialRectangle;html=1;whiteSpace=wrap;connectable=0;strokeColor=inherit;overflow=hidden;fillColor=none;top=0;left=0;bottom=0;right=0;pointerEvents=1;fontSize=16;" vertex="1" parent="12ZrEhQPK1PJFxmt8RGr-103">
          <mxGeometry x="34" width="32" height="34" as="geometry">
            <mxRectangle width="32" height="34" as="alternateBounds" />
          </mxGeometry>
        </mxCell>
        <mxCell id="12ZrEhQPK1PJFxmt8RGr-106" value="3" style="shape=partialRectangle;html=1;whiteSpace=wrap;connectable=0;strokeColor=inherit;overflow=hidden;fillColor=none;top=0;left=0;bottom=0;right=0;pointerEvents=1;fontSize=16;" vertex="1" parent="12ZrEhQPK1PJFxmt8RGr-103">
          <mxGeometry x="66" width="34" height="34" as="geometry">
            <mxRectangle width="34" height="34" as="alternateBounds" />
          </mxGeometry>
        </mxCell>
        <mxCell id="12ZrEhQPK1PJFxmt8RGr-107" value="" style="shape=tableRow;horizontal=0;startSize=0;swimlaneHead=0;swimlaneBody=0;strokeColor=inherit;top=0;left=0;bottom=0;right=0;collapsible=0;dropTarget=0;fillColor=none;points=[[0,0.5],[1,0.5]];portConstraint=eastwest;fontSize=16;" vertex="1" parent="12ZrEhQPK1PJFxmt8RGr-102">
          <mxGeometry y="34" width="100" height="32" as="geometry" />
        </mxCell>
        <mxCell id="12ZrEhQPK1PJFxmt8RGr-108" value="0" style="shape=partialRectangle;html=1;whiteSpace=wrap;connectable=0;strokeColor=inherit;overflow=hidden;fillColor=none;top=0;left=0;bottom=0;right=0;pointerEvents=1;fontSize=16;" vertex="1" parent="12ZrEhQPK1PJFxmt8RGr-107">
          <mxGeometry width="34" height="32" as="geometry">
            <mxRectangle width="34" height="32" as="alternateBounds" />
          </mxGeometry>
        </mxCell>
        <mxCell id="12ZrEhQPK1PJFxmt8RGr-109" value="2P" style="shape=partialRectangle;html=1;whiteSpace=wrap;connectable=0;strokeColor=inherit;overflow=hidden;fillColor=none;top=0;left=0;bottom=0;right=0;pointerEvents=1;fontSize=16;" vertex="1" parent="12ZrEhQPK1PJFxmt8RGr-107">
          <mxGeometry x="34" width="32" height="32" as="geometry">
            <mxRectangle width="32" height="32" as="alternateBounds" />
          </mxGeometry>
        </mxCell>
        <mxCell id="12ZrEhQPK1PJFxmt8RGr-110" value="0" style="shape=partialRectangle;html=1;whiteSpace=wrap;connectable=0;strokeColor=inherit;overflow=hidden;fillColor=none;top=0;left=0;bottom=0;right=0;pointerEvents=1;fontSize=16;" vertex="1" parent="12ZrEhQPK1PJFxmt8RGr-107">
          <mxGeometry x="66" width="34" height="32" as="geometry">
            <mxRectangle width="34" height="32" as="alternateBounds" />
          </mxGeometry>
        </mxCell>
        <mxCell id="12ZrEhQPK1PJFxmt8RGr-111" value="" style="shape=tableRow;horizontal=0;startSize=0;swimlaneHead=0;swimlaneBody=0;strokeColor=inherit;top=0;left=0;bottom=0;right=0;collapsible=0;dropTarget=0;fillColor=none;points=[[0,0.5],[1,0.5]];portConstraint=eastwest;fontSize=16;" vertex="1" parent="12ZrEhQPK1PJFxmt8RGr-102">
          <mxGeometry y="66" width="100" height="34" as="geometry" />
        </mxCell>
        <mxCell id="12ZrEhQPK1PJFxmt8RGr-112" value="0" style="shape=partialRectangle;html=1;whiteSpace=wrap;connectable=0;strokeColor=inherit;overflow=hidden;fillColor=none;top=0;left=0;bottom=0;right=0;pointerEvents=1;fontSize=16;" vertex="1" parent="12ZrEhQPK1PJFxmt8RGr-111">
          <mxGeometry width="34" height="34" as="geometry">
            <mxRectangle width="34" height="34" as="alternateBounds" />
          </mxGeometry>
        </mxCell>
        <mxCell id="12ZrEhQPK1PJFxmt8RGr-113" value="3" style="shape=partialRectangle;html=1;whiteSpace=wrap;connectable=0;strokeColor=inherit;overflow=hidden;fillColor=none;top=0;left=0;bottom=0;right=0;pointerEvents=1;fontSize=16;" vertex="1" parent="12ZrEhQPK1PJFxmt8RGr-111">
          <mxGeometry x="34" width="32" height="34" as="geometry">
            <mxRectangle width="32" height="34" as="alternateBounds" />
          </mxGeometry>
        </mxCell>
        <mxCell id="12ZrEhQPK1PJFxmt8RGr-114" value="3" style="shape=partialRectangle;html=1;whiteSpace=wrap;connectable=0;strokeColor=inherit;overflow=hidden;fillColor=none;top=0;left=0;bottom=0;right=0;pointerEvents=1;fontSize=16;" vertex="1" parent="12ZrEhQPK1PJFxmt8RGr-111">
          <mxGeometry x="66" width="34" height="34" as="geometry">
            <mxRectangle width="34" height="34" as="alternateBounds" />
          </mxGeometry>
        </mxCell>
        <mxCell id="12ZrEhQPK1PJFxmt8RGr-119" value="" style="shape=table;startSize=0;container=1;collapsible=0;childLayout=tableLayout;fontSize=16;" vertex="1" parent="1">
          <mxGeometry x="80" y="580" width="100" height="100" as="geometry" />
        </mxCell>
        <mxCell id="12ZrEhQPK1PJFxmt8RGr-120" value="" style="shape=tableRow;horizontal=0;startSize=0;swimlaneHead=0;swimlaneBody=0;strokeColor=inherit;top=0;left=0;bottom=0;right=0;collapsible=0;dropTarget=0;fillColor=none;points=[[0,0.5],[1,0.5]];portConstraint=eastwest;fontSize=16;" vertex="1" parent="12ZrEhQPK1PJFxmt8RGr-119">
          <mxGeometry width="100" height="34" as="geometry" />
        </mxCell>
        <mxCell id="12ZrEhQPK1PJFxmt8RGr-121" value="0" style="shape=partialRectangle;html=1;whiteSpace=wrap;connectable=0;strokeColor=inherit;overflow=hidden;fillColor=none;top=0;left=0;bottom=0;right=0;pointerEvents=1;fontSize=16;" vertex="1" parent="12ZrEhQPK1PJFxmt8RGr-120">
          <mxGeometry width="34" height="34" as="geometry">
            <mxRectangle width="34" height="34" as="alternateBounds" />
          </mxGeometry>
        </mxCell>
        <mxCell id="12ZrEhQPK1PJFxmt8RGr-122" value="2" style="shape=partialRectangle;html=1;whiteSpace=wrap;connectable=0;strokeColor=inherit;overflow=hidden;fillColor=none;top=0;left=0;bottom=0;right=0;pointerEvents=1;fontSize=16;" vertex="1" parent="12ZrEhQPK1PJFxmt8RGr-120">
          <mxGeometry x="34" width="32" height="34" as="geometry">
            <mxRectangle width="32" height="34" as="alternateBounds" />
          </mxGeometry>
        </mxCell>
        <mxCell id="12ZrEhQPK1PJFxmt8RGr-123" value="4" style="shape=partialRectangle;html=1;whiteSpace=wrap;connectable=0;strokeColor=inherit;overflow=hidden;fillColor=none;top=0;left=0;bottom=0;right=0;pointerEvents=1;fontSize=16;" vertex="1" parent="12ZrEhQPK1PJFxmt8RGr-120">
          <mxGeometry x="66" width="34" height="34" as="geometry">
            <mxRectangle width="34" height="34" as="alternateBounds" />
          </mxGeometry>
        </mxCell>
        <mxCell id="12ZrEhQPK1PJFxmt8RGr-124" value="" style="shape=tableRow;horizontal=0;startSize=0;swimlaneHead=0;swimlaneBody=0;strokeColor=inherit;top=0;left=0;bottom=0;right=0;collapsible=0;dropTarget=0;fillColor=none;points=[[0,0.5],[1,0.5]];portConstraint=eastwest;fontSize=16;" vertex="1" parent="12ZrEhQPK1PJFxmt8RGr-119">
          <mxGeometry y="34" width="100" height="32" as="geometry" />
        </mxCell>
        <mxCell id="12ZrEhQPK1PJFxmt8RGr-125" value="0" style="shape=partialRectangle;html=1;whiteSpace=wrap;connectable=0;strokeColor=inherit;overflow=hidden;fillColor=none;top=0;left=0;bottom=0;right=0;pointerEvents=1;fontSize=16;" vertex="1" parent="12ZrEhQPK1PJFxmt8RGr-124">
          <mxGeometry width="34" height="32" as="geometry">
            <mxRectangle width="34" height="32" as="alternateBounds" />
          </mxGeometry>
        </mxCell>
        <mxCell id="12ZrEhQPK1PJFxmt8RGr-126" value="1P" style="shape=partialRectangle;html=1;whiteSpace=wrap;connectable=0;strokeColor=inherit;overflow=hidden;fillColor=none;top=0;left=0;bottom=0;right=0;pointerEvents=1;fontSize=16;" vertex="1" parent="12ZrEhQPK1PJFxmt8RGr-124">
          <mxGeometry x="34" width="32" height="32" as="geometry">
            <mxRectangle width="32" height="32" as="alternateBounds" />
          </mxGeometry>
        </mxCell>
        <mxCell id="12ZrEhQPK1PJFxmt8RGr-127" value="0" style="shape=partialRectangle;html=1;whiteSpace=wrap;connectable=0;strokeColor=inherit;overflow=hidden;fillColor=none;top=0;left=0;bottom=0;right=0;pointerEvents=1;fontSize=16;" vertex="1" parent="12ZrEhQPK1PJFxmt8RGr-124">
          <mxGeometry x="66" width="34" height="32" as="geometry">
            <mxRectangle width="34" height="32" as="alternateBounds" />
          </mxGeometry>
        </mxCell>
        <mxCell id="12ZrEhQPK1PJFxmt8RGr-128" value="" style="shape=tableRow;horizontal=0;startSize=0;swimlaneHead=0;swimlaneBody=0;strokeColor=inherit;top=0;left=0;bottom=0;right=0;collapsible=0;dropTarget=0;fillColor=none;points=[[0,0.5],[1,0.5]];portConstraint=eastwest;fontSize=16;" vertex="1" parent="12ZrEhQPK1PJFxmt8RGr-119">
          <mxGeometry y="66" width="100" height="34" as="geometry" />
        </mxCell>
        <mxCell id="12ZrEhQPK1PJFxmt8RGr-129" value="0" style="shape=partialRectangle;html=1;whiteSpace=wrap;connectable=0;strokeColor=inherit;overflow=hidden;fillColor=none;top=0;left=0;bottom=0;right=0;pointerEvents=1;fontSize=16;" vertex="1" parent="12ZrEhQPK1PJFxmt8RGr-128">
          <mxGeometry width="34" height="34" as="geometry">
            <mxRectangle width="34" height="34" as="alternateBounds" />
          </mxGeometry>
        </mxCell>
        <mxCell id="12ZrEhQPK1PJFxmt8RGr-130" value="4" style="shape=partialRectangle;html=1;whiteSpace=wrap;connectable=0;strokeColor=inherit;overflow=hidden;fillColor=none;top=0;left=0;bottom=0;right=0;pointerEvents=1;fontSize=16;" vertex="1" parent="12ZrEhQPK1PJFxmt8RGr-128">
          <mxGeometry x="34" width="32" height="34" as="geometry">
            <mxRectangle width="32" height="34" as="alternateBounds" />
          </mxGeometry>
        </mxCell>
        <mxCell id="12ZrEhQPK1PJFxmt8RGr-131" value="4" style="shape=partialRectangle;html=1;whiteSpace=wrap;connectable=0;strokeColor=inherit;overflow=hidden;fillColor=none;top=0;left=0;bottom=0;right=0;pointerEvents=1;fontSize=16;" vertex="1" parent="12ZrEhQPK1PJFxmt8RGr-128">
          <mxGeometry x="66" width="34" height="34" as="geometry">
            <mxRectangle width="34" height="34" as="alternateBounds" />
          </mxGeometry>
        </mxCell>
        <mxCell id="12ZrEhQPK1PJFxmt8RGr-145" value="" style="shape=table;startSize=0;container=1;collapsible=0;childLayout=tableLayout;fontSize=16;" vertex="1" parent="1">
          <mxGeometry x="80" y="700" width="100" height="100" as="geometry" />
        </mxCell>
        <mxCell id="12ZrEhQPK1PJFxmt8RGr-146" value="" style="shape=tableRow;horizontal=0;startSize=0;swimlaneHead=0;swimlaneBody=0;strokeColor=inherit;top=0;left=0;bottom=0;right=0;collapsible=0;dropTarget=0;fillColor=none;points=[[0,0.5],[1,0.5]];portConstraint=eastwest;fontSize=16;" vertex="1" parent="12ZrEhQPK1PJFxmt8RGr-145">
          <mxGeometry width="100" height="34" as="geometry" />
        </mxCell>
        <mxCell id="12ZrEhQPK1PJFxmt8RGr-147" value="0" style="shape=partialRectangle;html=1;whiteSpace=wrap;connectable=0;strokeColor=inherit;overflow=hidden;fillColor=none;top=0;left=0;bottom=0;right=0;pointerEvents=1;fontSize=16;" vertex="1" parent="12ZrEhQPK1PJFxmt8RGr-146">
          <mxGeometry width="34" height="34" as="geometry">
            <mxRectangle width="34" height="34" as="alternateBounds" />
          </mxGeometry>
        </mxCell>
        <mxCell id="12ZrEhQPK1PJFxmt8RGr-148" value="3" style="shape=partialRectangle;html=1;whiteSpace=wrap;connectable=0;strokeColor=inherit;overflow=hidden;fillColor=none;top=0;left=0;bottom=0;right=0;pointerEvents=1;fontSize=16;" vertex="1" parent="12ZrEhQPK1PJFxmt8RGr-146">
          <mxGeometry x="34" width="32" height="34" as="geometry">
            <mxRectangle width="32" height="34" as="alternateBounds" />
          </mxGeometry>
        </mxCell>
        <mxCell id="12ZrEhQPK1PJFxmt8RGr-149" value="8" style="shape=partialRectangle;html=1;whiteSpace=wrap;connectable=0;strokeColor=inherit;overflow=hidden;fillColor=none;top=0;left=0;bottom=0;right=0;pointerEvents=1;fontSize=16;" vertex="1" parent="12ZrEhQPK1PJFxmt8RGr-146">
          <mxGeometry x="66" width="34" height="34" as="geometry">
            <mxRectangle width="34" height="34" as="alternateBounds" />
          </mxGeometry>
        </mxCell>
        <mxCell id="12ZrEhQPK1PJFxmt8RGr-150" value="" style="shape=tableRow;horizontal=0;startSize=0;swimlaneHead=0;swimlaneBody=0;strokeColor=inherit;top=0;left=0;bottom=0;right=0;collapsible=0;dropTarget=0;fillColor=none;points=[[0,0.5],[1,0.5]];portConstraint=eastwest;fontSize=16;" vertex="1" parent="12ZrEhQPK1PJFxmt8RGr-145">
          <mxGeometry y="34" width="100" height="32" as="geometry" />
        </mxCell>
        <mxCell id="12ZrEhQPK1PJFxmt8RGr-151" value="3" style="shape=partialRectangle;html=1;whiteSpace=wrap;connectable=0;strokeColor=inherit;overflow=hidden;fillColor=none;top=0;left=0;bottom=0;right=0;pointerEvents=1;fontSize=16;" vertex="1" parent="12ZrEhQPK1PJFxmt8RGr-150">
          <mxGeometry width="34" height="32" as="geometry">
            <mxRectangle width="34" height="32" as="alternateBounds" />
          </mxGeometry>
        </mxCell>
        <mxCell id="12ZrEhQPK1PJFxmt8RGr-152" value="1P" style="shape=partialRectangle;html=1;whiteSpace=wrap;connectable=0;strokeColor=inherit;overflow=hidden;fillColor=none;top=0;left=0;bottom=0;right=0;pointerEvents=1;fontSize=16;" vertex="1" parent="12ZrEhQPK1PJFxmt8RGr-150">
          <mxGeometry x="34" width="32" height="32" as="geometry">
            <mxRectangle width="32" height="32" as="alternateBounds" />
          </mxGeometry>
        </mxCell>
        <mxCell id="12ZrEhQPK1PJFxmt8RGr-153" value="0" style="shape=partialRectangle;html=1;whiteSpace=wrap;connectable=0;strokeColor=inherit;overflow=hidden;fillColor=none;top=0;left=0;bottom=0;right=0;pointerEvents=1;fontSize=16;" vertex="1" parent="12ZrEhQPK1PJFxmt8RGr-150">
          <mxGeometry x="66" width="34" height="32" as="geometry">
            <mxRectangle width="34" height="32" as="alternateBounds" />
          </mxGeometry>
        </mxCell>
        <mxCell id="12ZrEhQPK1PJFxmt8RGr-154" value="" style="shape=tableRow;horizontal=0;startSize=0;swimlaneHead=0;swimlaneBody=0;strokeColor=inherit;top=0;left=0;bottom=0;right=0;collapsible=0;dropTarget=0;fillColor=none;points=[[0,0.5],[1,0.5]];portConstraint=eastwest;fontSize=16;" vertex="1" parent="12ZrEhQPK1PJFxmt8RGr-145">
          <mxGeometry y="66" width="100" height="34" as="geometry" />
        </mxCell>
        <mxCell id="12ZrEhQPK1PJFxmt8RGr-155" value="3" style="shape=partialRectangle;html=1;whiteSpace=wrap;connectable=0;strokeColor=inherit;overflow=hidden;fillColor=none;top=0;left=0;bottom=0;right=0;pointerEvents=1;fontSize=16;" vertex="1" parent="12ZrEhQPK1PJFxmt8RGr-154">
          <mxGeometry width="34" height="34" as="geometry">
            <mxRectangle width="34" height="34" as="alternateBounds" />
          </mxGeometry>
        </mxCell>
        <mxCell id="12ZrEhQPK1PJFxmt8RGr-156" value="5" style="shape=partialRectangle;html=1;whiteSpace=wrap;connectable=0;strokeColor=inherit;overflow=hidden;fillColor=none;top=0;left=0;bottom=0;right=0;pointerEvents=1;fontSize=16;" vertex="1" parent="12ZrEhQPK1PJFxmt8RGr-154">
          <mxGeometry x="34" width="32" height="34" as="geometry">
            <mxRectangle width="32" height="34" as="alternateBounds" />
          </mxGeometry>
        </mxCell>
        <mxCell id="12ZrEhQPK1PJFxmt8RGr-157" value="8" style="shape=partialRectangle;html=1;whiteSpace=wrap;connectable=0;strokeColor=inherit;overflow=hidden;fillColor=none;top=0;left=0;bottom=0;right=0;pointerEvents=1;fontSize=16;" vertex="1" parent="12ZrEhQPK1PJFxmt8RGr-154">
          <mxGeometry x="66" width="34" height="34" as="geometry">
            <mxRectangle width="34" height="34" as="alternateBounds" />
          </mxGeometry>
        </mxCell>
        <mxCell id="12ZrEhQPK1PJFxmt8RGr-158" value="" style="shape=table;startSize=0;container=1;collapsible=0;childLayout=tableLayout;fontSize=16;" vertex="1" parent="1">
          <mxGeometry x="240" y="520" width="100" height="100" as="geometry" />
        </mxCell>
        <mxCell id="12ZrEhQPK1PJFxmt8RGr-159" value="" style="shape=tableRow;horizontal=0;startSize=0;swimlaneHead=0;swimlaneBody=0;strokeColor=inherit;top=0;left=0;bottom=0;right=0;collapsible=0;dropTarget=0;fillColor=none;points=[[0,0.5],[1,0.5]];portConstraint=eastwest;fontSize=16;" vertex="1" parent="12ZrEhQPK1PJFxmt8RGr-158">
          <mxGeometry width="100" height="34" as="geometry" />
        </mxCell>
        <mxCell id="12ZrEhQPK1PJFxmt8RGr-160" value="4" style="shape=partialRectangle;html=1;whiteSpace=wrap;connectable=0;strokeColor=inherit;overflow=hidden;fillColor=none;top=0;left=0;bottom=0;right=0;pointerEvents=1;fontSize=16;" vertex="1" parent="12ZrEhQPK1PJFxmt8RGr-159">
          <mxGeometry width="34" height="34" as="geometry">
            <mxRectangle width="34" height="34" as="alternateBounds" />
          </mxGeometry>
        </mxCell>
        <mxCell id="12ZrEhQPK1PJFxmt8RGr-161" value="4" style="shape=partialRectangle;html=1;whiteSpace=wrap;connectable=0;strokeColor=inherit;overflow=hidden;fillColor=none;top=0;left=0;bottom=0;right=0;pointerEvents=1;fontSize=16;" vertex="1" parent="12ZrEhQPK1PJFxmt8RGr-159">
          <mxGeometry x="34" width="32" height="34" as="geometry">
            <mxRectangle width="32" height="34" as="alternateBounds" />
          </mxGeometry>
        </mxCell>
        <mxCell id="12ZrEhQPK1PJFxmt8RGr-162" value="10" style="shape=partialRectangle;html=1;whiteSpace=wrap;connectable=0;strokeColor=inherit;overflow=hidden;fillColor=none;top=0;left=0;bottom=0;right=0;pointerEvents=1;fontSize=16;" vertex="1" parent="12ZrEhQPK1PJFxmt8RGr-159">
          <mxGeometry x="66" width="34" height="34" as="geometry">
            <mxRectangle width="34" height="34" as="alternateBounds" />
          </mxGeometry>
        </mxCell>
        <mxCell id="12ZrEhQPK1PJFxmt8RGr-163" value="" style="shape=tableRow;horizontal=0;startSize=0;swimlaneHead=0;swimlaneBody=0;strokeColor=inherit;top=0;left=0;bottom=0;right=0;collapsible=0;dropTarget=0;fillColor=none;points=[[0,0.5],[1,0.5]];portConstraint=eastwest;fontSize=16;" vertex="1" parent="12ZrEhQPK1PJFxmt8RGr-158">
          <mxGeometry y="34" width="100" height="32" as="geometry" />
        </mxCell>
        <mxCell id="12ZrEhQPK1PJFxmt8RGr-164" value="0" style="shape=partialRectangle;html=1;whiteSpace=wrap;connectable=0;strokeColor=inherit;overflow=hidden;fillColor=none;top=0;left=0;bottom=0;right=0;pointerEvents=1;fontSize=16;" vertex="1" parent="12ZrEhQPK1PJFxmt8RGr-163">
          <mxGeometry width="34" height="32" as="geometry">
            <mxRectangle width="34" height="32" as="alternateBounds" />
          </mxGeometry>
        </mxCell>
        <mxCell id="12ZrEhQPK1PJFxmt8RGr-165" value="1P" style="shape=partialRectangle;html=1;whiteSpace=wrap;connectable=0;strokeColor=inherit;overflow=hidden;fillColor=none;top=0;left=0;bottom=0;right=0;pointerEvents=1;fontSize=16;" vertex="1" parent="12ZrEhQPK1PJFxmt8RGr-163">
          <mxGeometry x="34" width="32" height="32" as="geometry">
            <mxRectangle width="32" height="32" as="alternateBounds" />
          </mxGeometry>
        </mxCell>
        <mxCell id="12ZrEhQPK1PJFxmt8RGr-166" value="0" style="shape=partialRectangle;html=1;whiteSpace=wrap;connectable=0;strokeColor=inherit;overflow=hidden;fillColor=none;top=0;left=0;bottom=0;right=0;pointerEvents=1;fontSize=16;" vertex="1" parent="12ZrEhQPK1PJFxmt8RGr-163">
          <mxGeometry x="66" width="34" height="32" as="geometry">
            <mxRectangle width="34" height="32" as="alternateBounds" />
          </mxGeometry>
        </mxCell>
        <mxCell id="12ZrEhQPK1PJFxmt8RGr-167" value="" style="shape=tableRow;horizontal=0;startSize=0;swimlaneHead=0;swimlaneBody=0;strokeColor=inherit;top=0;left=0;bottom=0;right=0;collapsible=0;dropTarget=0;fillColor=none;points=[[0,0.5],[1,0.5]];portConstraint=eastwest;fontSize=16;" vertex="1" parent="12ZrEhQPK1PJFxmt8RGr-158">
          <mxGeometry y="66" width="100" height="34" as="geometry" />
        </mxCell>
        <mxCell id="12ZrEhQPK1PJFxmt8RGr-168" value="4" style="shape=partialRectangle;html=1;whiteSpace=wrap;connectable=0;strokeColor=inherit;overflow=hidden;fillColor=none;top=0;left=0;bottom=0;right=0;pointerEvents=1;fontSize=16;" vertex="1" parent="12ZrEhQPK1PJFxmt8RGr-167">
          <mxGeometry width="34" height="34" as="geometry">
            <mxRectangle width="34" height="34" as="alternateBounds" />
          </mxGeometry>
        </mxCell>
        <mxCell id="12ZrEhQPK1PJFxmt8RGr-169" value="6" style="shape=partialRectangle;html=1;whiteSpace=wrap;connectable=0;strokeColor=inherit;overflow=hidden;fillColor=none;top=0;left=0;bottom=0;right=0;pointerEvents=1;fontSize=16;" vertex="1" parent="12ZrEhQPK1PJFxmt8RGr-167">
          <mxGeometry x="34" width="32" height="34" as="geometry">
            <mxRectangle width="32" height="34" as="alternateBounds" />
          </mxGeometry>
        </mxCell>
        <mxCell id="12ZrEhQPK1PJFxmt8RGr-170" value="10" style="shape=partialRectangle;html=1;whiteSpace=wrap;connectable=0;strokeColor=inherit;overflow=hidden;fillColor=none;top=0;left=0;bottom=0;right=0;pointerEvents=1;fontSize=16;" vertex="1" parent="12ZrEhQPK1PJFxmt8RGr-167">
          <mxGeometry x="66" width="34" height="34" as="geometry">
            <mxRectangle width="34" height="34" as="alternateBounds" />
          </mxGeometry>
        </mxCell>
        <mxCell id="12ZrEhQPK1PJFxmt8RGr-171" value="" style="shape=table;startSize=0;container=1;collapsible=0;childLayout=tableLayout;fontSize=16;" vertex="1" parent="1">
          <mxGeometry x="240" y="660" width="100" height="100" as="geometry" />
        </mxCell>
        <mxCell id="12ZrEhQPK1PJFxmt8RGr-172" value="" style="shape=tableRow;horizontal=0;startSize=0;swimlaneHead=0;swimlaneBody=0;strokeColor=inherit;top=0;left=0;bottom=0;right=0;collapsible=0;dropTarget=0;fillColor=none;points=[[0,0.5],[1,0.5]];portConstraint=eastwest;fontSize=16;" vertex="1" parent="12ZrEhQPK1PJFxmt8RGr-171">
          <mxGeometry width="100" height="34" as="geometry" />
        </mxCell>
        <mxCell id="12ZrEhQPK1PJFxmt8RGr-173" value="8" style="shape=partialRectangle;html=1;whiteSpace=wrap;connectable=0;strokeColor=inherit;overflow=hidden;fillColor=none;top=0;left=0;bottom=0;right=0;pointerEvents=1;fontSize=16;" vertex="1" parent="12ZrEhQPK1PJFxmt8RGr-172">
          <mxGeometry width="34" height="34" as="geometry">
            <mxRectangle width="34" height="34" as="alternateBounds" />
          </mxGeometry>
        </mxCell>
        <mxCell id="12ZrEhQPK1PJFxmt8RGr-174" value="5" style="shape=partialRectangle;html=1;whiteSpace=wrap;connectable=0;strokeColor=inherit;overflow=hidden;fillColor=none;top=0;left=0;bottom=0;right=0;pointerEvents=1;fontSize=16;" vertex="1" parent="12ZrEhQPK1PJFxmt8RGr-172">
          <mxGeometry x="34" width="32" height="34" as="geometry">
            <mxRectangle width="32" height="34" as="alternateBounds" />
          </mxGeometry>
        </mxCell>
        <mxCell id="12ZrEhQPK1PJFxmt8RGr-175" value="12" style="shape=partialRectangle;html=1;whiteSpace=wrap;connectable=0;strokeColor=inherit;overflow=hidden;fillColor=none;top=0;left=0;bottom=0;right=0;pointerEvents=1;fontSize=16;" vertex="1" parent="12ZrEhQPK1PJFxmt8RGr-172">
          <mxGeometry x="66" width="34" height="34" as="geometry">
            <mxRectangle width="34" height="34" as="alternateBounds" />
          </mxGeometry>
        </mxCell>
        <mxCell id="12ZrEhQPK1PJFxmt8RGr-176" value="" style="shape=tableRow;horizontal=0;startSize=0;swimlaneHead=0;swimlaneBody=0;strokeColor=inherit;top=0;left=0;bottom=0;right=0;collapsible=0;dropTarget=0;fillColor=none;points=[[0,0.5],[1,0.5]];portConstraint=eastwest;fontSize=16;" vertex="1" parent="12ZrEhQPK1PJFxmt8RGr-171">
          <mxGeometry y="34" width="100" height="32" as="geometry" />
        </mxCell>
        <mxCell id="12ZrEhQPK1PJFxmt8RGr-177" value="0" style="shape=partialRectangle;html=1;whiteSpace=wrap;connectable=0;strokeColor=inherit;overflow=hidden;fillColor=none;top=0;left=0;bottom=0;right=0;pointerEvents=1;fontSize=16;" vertex="1" parent="12ZrEhQPK1PJFxmt8RGr-176">
          <mxGeometry width="34" height="32" as="geometry">
            <mxRectangle width="34" height="32" as="alternateBounds" />
          </mxGeometry>
        </mxCell>
        <mxCell id="12ZrEhQPK1PJFxmt8RGr-178" value="2P" style="shape=partialRectangle;html=1;whiteSpace=wrap;connectable=0;strokeColor=inherit;overflow=hidden;fillColor=none;top=0;left=0;bottom=0;right=0;pointerEvents=1;fontSize=16;" vertex="1" parent="12ZrEhQPK1PJFxmt8RGr-176">
          <mxGeometry x="34" width="32" height="32" as="geometry">
            <mxRectangle width="32" height="32" as="alternateBounds" />
          </mxGeometry>
        </mxCell>
        <mxCell id="12ZrEhQPK1PJFxmt8RGr-179" value="0" style="shape=partialRectangle;html=1;whiteSpace=wrap;connectable=0;strokeColor=inherit;overflow=hidden;fillColor=none;top=0;left=0;bottom=0;right=0;pointerEvents=1;fontSize=16;" vertex="1" parent="12ZrEhQPK1PJFxmt8RGr-176">
          <mxGeometry x="66" width="34" height="32" as="geometry">
            <mxRectangle width="34" height="32" as="alternateBounds" />
          </mxGeometry>
        </mxCell>
        <mxCell id="12ZrEhQPK1PJFxmt8RGr-180" value="" style="shape=tableRow;horizontal=0;startSize=0;swimlaneHead=0;swimlaneBody=0;strokeColor=inherit;top=0;left=0;bottom=0;right=0;collapsible=0;dropTarget=0;fillColor=none;points=[[0,0.5],[1,0.5]];portConstraint=eastwest;fontSize=16;" vertex="1" parent="12ZrEhQPK1PJFxmt8RGr-171">
          <mxGeometry y="66" width="100" height="34" as="geometry" />
        </mxCell>
        <mxCell id="12ZrEhQPK1PJFxmt8RGr-181" value="8" style="shape=partialRectangle;html=1;whiteSpace=wrap;connectable=0;strokeColor=inherit;overflow=hidden;fillColor=none;top=0;left=0;bottom=0;right=0;pointerEvents=1;fontSize=16;" vertex="1" parent="12ZrEhQPK1PJFxmt8RGr-180">
          <mxGeometry width="34" height="34" as="geometry">
            <mxRectangle width="34" height="34" as="alternateBounds" />
          </mxGeometry>
        </mxCell>
        <mxCell id="12ZrEhQPK1PJFxmt8RGr-182" value="4" style="shape=partialRectangle;html=1;whiteSpace=wrap;connectable=0;strokeColor=inherit;overflow=hidden;fillColor=none;top=0;left=0;bottom=0;right=0;pointerEvents=1;fontSize=16;" vertex="1" parent="12ZrEhQPK1PJFxmt8RGr-180">
          <mxGeometry x="34" width="32" height="34" as="geometry">
            <mxRectangle width="32" height="34" as="alternateBounds" />
          </mxGeometry>
        </mxCell>
        <mxCell id="12ZrEhQPK1PJFxmt8RGr-183" value="12" style="shape=partialRectangle;html=1;whiteSpace=wrap;connectable=0;strokeColor=inherit;overflow=hidden;fillColor=none;top=0;left=0;bottom=0;right=0;pointerEvents=1;fontSize=16;" vertex="1" parent="12ZrEhQPK1PJFxmt8RGr-180">
          <mxGeometry x="66" width="34" height="34" as="geometry">
            <mxRectangle width="34" height="34" as="alternateBounds" />
          </mxGeometry>
        </mxCell>
        <mxCell id="12ZrEhQPK1PJFxmt8RGr-184" value="" style="shape=table;startSize=0;container=1;collapsible=0;childLayout=tableLayout;fontSize=16;" vertex="1" parent="1">
          <mxGeometry x="390" y="580" width="100" height="100" as="geometry" />
        </mxCell>
        <mxCell id="12ZrEhQPK1PJFxmt8RGr-185" value="" style="shape=tableRow;horizontal=0;startSize=0;swimlaneHead=0;swimlaneBody=0;strokeColor=inherit;top=0;left=0;bottom=0;right=0;collapsible=0;dropTarget=0;fillColor=none;points=[[0,0.5],[1,0.5]];portConstraint=eastwest;fontSize=16;" vertex="1" parent="12ZrEhQPK1PJFxmt8RGr-184">
          <mxGeometry width="100" height="34" as="geometry" />
        </mxCell>
        <mxCell id="12ZrEhQPK1PJFxmt8RGr-186" value="12" style="shape=partialRectangle;html=1;whiteSpace=wrap;connectable=0;strokeColor=inherit;overflow=hidden;fillColor=none;top=0;left=0;bottom=0;right=0;pointerEvents=1;fontSize=16;" vertex="1" parent="12ZrEhQPK1PJFxmt8RGr-185">
          <mxGeometry width="34" height="34" as="geometry">
            <mxRectangle width="34" height="34" as="alternateBounds" />
          </mxGeometry>
        </mxCell>
        <mxCell id="12ZrEhQPK1PJFxmt8RGr-187" value="6" style="shape=partialRectangle;html=1;whiteSpace=wrap;connectable=0;strokeColor=inherit;overflow=hidden;fillColor=none;top=0;left=0;bottom=0;right=0;pointerEvents=1;fontSize=16;" vertex="1" parent="12ZrEhQPK1PJFxmt8RGr-185">
          <mxGeometry x="34" width="32" height="34" as="geometry">
            <mxRectangle width="32" height="34" as="alternateBounds" />
          </mxGeometry>
        </mxCell>
        <mxCell id="12ZrEhQPK1PJFxmt8RGr-188" value="15" style="shape=partialRectangle;html=1;whiteSpace=wrap;connectable=0;strokeColor=inherit;overflow=hidden;fillColor=none;top=0;left=0;bottom=0;right=0;pointerEvents=1;fontSize=16;" vertex="1" parent="12ZrEhQPK1PJFxmt8RGr-185">
          <mxGeometry x="66" width="34" height="34" as="geometry">
            <mxRectangle width="34" height="34" as="alternateBounds" />
          </mxGeometry>
        </mxCell>
        <mxCell id="12ZrEhQPK1PJFxmt8RGr-189" value="" style="shape=tableRow;horizontal=0;startSize=0;swimlaneHead=0;swimlaneBody=0;strokeColor=inherit;top=0;left=0;bottom=0;right=0;collapsible=0;dropTarget=0;fillColor=none;points=[[0,0.5],[1,0.5]];portConstraint=eastwest;fontSize=16;" vertex="1" parent="12ZrEhQPK1PJFxmt8RGr-184">
          <mxGeometry y="34" width="100" height="32" as="geometry" />
        </mxCell>
        <mxCell id="12ZrEhQPK1PJFxmt8RGr-190" value="0" style="shape=partialRectangle;html=1;whiteSpace=wrap;connectable=0;strokeColor=inherit;overflow=hidden;fillColor=none;top=0;left=0;bottom=0;right=0;pointerEvents=1;fontSize=16;" vertex="1" parent="12ZrEhQPK1PJFxmt8RGr-189">
          <mxGeometry width="34" height="32" as="geometry">
            <mxRectangle width="34" height="32" as="alternateBounds" />
          </mxGeometry>
        </mxCell>
        <mxCell id="12ZrEhQPK1PJFxmt8RGr-191" value="2P" style="shape=partialRectangle;html=1;whiteSpace=wrap;connectable=0;strokeColor=inherit;overflow=hidden;fillColor=none;top=0;left=0;bottom=0;right=0;pointerEvents=1;fontSize=16;" vertex="1" parent="12ZrEhQPK1PJFxmt8RGr-189">
          <mxGeometry x="34" width="32" height="32" as="geometry">
            <mxRectangle width="32" height="32" as="alternateBounds" />
          </mxGeometry>
        </mxCell>
        <mxCell id="12ZrEhQPK1PJFxmt8RGr-192" value="0" style="shape=partialRectangle;html=1;whiteSpace=wrap;connectable=0;strokeColor=inherit;overflow=hidden;fillColor=none;top=0;left=0;bottom=0;right=0;pointerEvents=1;fontSize=16;" vertex="1" parent="12ZrEhQPK1PJFxmt8RGr-189">
          <mxGeometry x="66" width="34" height="32" as="geometry">
            <mxRectangle width="34" height="32" as="alternateBounds" />
          </mxGeometry>
        </mxCell>
        <mxCell id="12ZrEhQPK1PJFxmt8RGr-193" value="" style="shape=tableRow;horizontal=0;startSize=0;swimlaneHead=0;swimlaneBody=0;strokeColor=inherit;top=0;left=0;bottom=0;right=0;collapsible=0;dropTarget=0;fillColor=none;points=[[0,0.5],[1,0.5]];portConstraint=eastwest;fontSize=16;" vertex="1" parent="12ZrEhQPK1PJFxmt8RGr-184">
          <mxGeometry y="66" width="100" height="34" as="geometry" />
        </mxCell>
        <mxCell id="12ZrEhQPK1PJFxmt8RGr-194" value="12" style="shape=partialRectangle;html=1;whiteSpace=wrap;connectable=0;strokeColor=inherit;overflow=hidden;fillColor=none;top=0;left=0;bottom=0;right=0;pointerEvents=1;fontSize=16;" vertex="1" parent="12ZrEhQPK1PJFxmt8RGr-193">
          <mxGeometry width="34" height="34" as="geometry">
            <mxRectangle width="34" height="34" as="alternateBounds" />
          </mxGeometry>
        </mxCell>
        <mxCell id="12ZrEhQPK1PJFxmt8RGr-195" value="3" style="shape=partialRectangle;html=1;whiteSpace=wrap;connectable=0;strokeColor=inherit;overflow=hidden;fillColor=none;top=0;left=0;bottom=0;right=0;pointerEvents=1;fontSize=16;" vertex="1" parent="12ZrEhQPK1PJFxmt8RGr-193">
          <mxGeometry x="34" width="32" height="34" as="geometry">
            <mxRectangle width="32" height="34" as="alternateBounds" />
          </mxGeometry>
        </mxCell>
        <mxCell id="12ZrEhQPK1PJFxmt8RGr-196" value="15" style="shape=partialRectangle;html=1;whiteSpace=wrap;connectable=0;strokeColor=inherit;overflow=hidden;fillColor=none;top=0;left=0;bottom=0;right=0;pointerEvents=1;fontSize=16;" vertex="1" parent="12ZrEhQPK1PJFxmt8RGr-193">
          <mxGeometry x="66" width="34" height="34" as="geometry">
            <mxRectangle width="34" height="34" as="alternateBounds" />
          </mxGeometry>
        </mxCell>
        <mxCell id="12ZrEhQPK1PJFxmt8RGr-197" value="" style="endArrow=classic;html=1;rounded=0;entryX=0;entryY=0.5;entryDx=0;entryDy=0;exitX=1;exitY=0.5;exitDx=0;exitDy=0;" edge="1" parent="1" source="12ZrEhQPK1PJFxmt8RGr-107" target="12ZrEhQPK1PJFxmt8RGr-163">
          <mxGeometry width="50" height="50" relative="1" as="geometry">
            <mxPoint x="30" y="590" as="sourcePoint" />
            <mxPoint x="80" y="540" as="targetPoint" />
          </mxGeometry>
        </mxCell>
        <mxCell id="12ZrEhQPK1PJFxmt8RGr-198" value="" style="endArrow=classic;html=1;rounded=0;entryX=0;entryY=0.5;entryDx=0;entryDy=0;exitX=1;exitY=0.5;exitDx=0;exitDy=0;" edge="1" parent="1" source="12ZrEhQPK1PJFxmt8RGr-124" target="12ZrEhQPK1PJFxmt8RGr-163">
          <mxGeometry width="50" height="50" relative="1" as="geometry">
            <mxPoint x="100" y="640" as="sourcePoint" />
            <mxPoint x="150" y="590" as="targetPoint" />
          </mxGeometry>
        </mxCell>
        <mxCell id="12ZrEhQPK1PJFxmt8RGr-199" value="" style="endArrow=classic;html=1;rounded=0;exitX=1;exitY=0.5;exitDx=0;exitDy=0;entryX=0;entryY=0.5;entryDx=0;entryDy=0;" edge="1" parent="1" source="12ZrEhQPK1PJFxmt8RGr-124" target="12ZrEhQPK1PJFxmt8RGr-176">
          <mxGeometry width="50" height="50" relative="1" as="geometry">
            <mxPoint x="210" y="670" as="sourcePoint" />
            <mxPoint x="260" y="620" as="targetPoint" />
          </mxGeometry>
        </mxCell>
        <mxCell id="12ZrEhQPK1PJFxmt8RGr-200" value="" style="endArrow=classic;html=1;rounded=0;exitX=1;exitY=0.5;exitDx=0;exitDy=0;" edge="1" parent="1" source="12ZrEhQPK1PJFxmt8RGr-150">
          <mxGeometry width="50" height="50" relative="1" as="geometry">
            <mxPoint x="170" y="770" as="sourcePoint" />
            <mxPoint x="240" y="710" as="targetPoint" />
          </mxGeometry>
        </mxCell>
        <mxCell id="12ZrEhQPK1PJFxmt8RGr-201" value="" style="endArrow=classic;html=1;rounded=0;entryX=0;entryY=0.5;entryDx=0;entryDy=0;exitX=1;exitY=0.5;exitDx=0;exitDy=0;" edge="1" parent="1" source="12ZrEhQPK1PJFxmt8RGr-176" target="12ZrEhQPK1PJFxmt8RGr-189">
          <mxGeometry width="50" height="50" relative="1" as="geometry">
            <mxPoint x="300" y="660" as="sourcePoint" />
            <mxPoint x="350" y="610" as="targetPoint" />
          </mxGeometry>
        </mxCell>
        <mxCell id="12ZrEhQPK1PJFxmt8RGr-202" value="" style="endArrow=classic;html=1;rounded=0;entryX=0;entryY=0.5;entryDx=0;entryDy=0;exitX=1;exitY=0.5;exitDx=0;exitDy=0;" edge="1" parent="1" source="12ZrEhQPK1PJFxmt8RGr-163" target="12ZrEhQPK1PJFxmt8RGr-189">
          <mxGeometry width="50" height="50" relative="1" as="geometry">
            <mxPoint x="300" y="690" as="sourcePoint" />
            <mxPoint x="350" y="640" as="targetPoint" />
          </mxGeometry>
        </mxCell>
      </root>
    </mxGraphModel>
  </diagram>
</mxfile>
